<?xml version="1.0" encoding="UTF-8"?>
<svg width="9px" height="10px" viewBox="0 0 9 10" version="1.1" xmlns="http://www.w3.org/2000/svg" xmlns:xlink="http://www.w3.org/1999/xlink">
    <title>Group 3 Copy</title>
    <g id="Desktop" stroke="none" stroke-width="1" fill="none" fill-rule="evenodd">
        <g id="BAM---Base-Style-guide" transform="translate(-190.000000, -987.000000)" fill="#FFFFFF">
            <g id="Group-3-Copy" transform="translate(194.500000, 992.000000) rotate(-90.000000) translate(-194.500000, -992.000000) translate(189.500000, 987.500000)">
                <polygon id="Fill-1" points="5.00155 4 4.99945 3.00292398 4.99845 3"></polygon>
                <polygon id="Fill-2" points="4.93598185 1.51530182e-13 4.5982958 0.0826638861 4.20489127 0.178710672 4.22204393 2.24027564 4.23089692 3.30818751 4.25828584 6.59624626 0.976041609 3.61583099 0 4.65463777 4.27737509 8.53891559 4.50644608 8.74703056 4.76567255 8.98259135 4.99087036 8.9061293 5.27637913 9 5.60092403 8.69967359 5.76052675 8.55199927 10 4.62798078 9.01402645 3.59787832 5.76080341 6.60903074 5.7558236 2.86587179 5.75499364 2.21467948 5.75222708 0.191495149 5.36546229 0.100643757 4.93617551 1.51530182e-13"></polygon>
            </g>
        </g>
    </g>
</svg>