<?xml version="1.0" encoding="UTF-8"?>
<svg width="228px" height="13px" viewBox="0 0 228 13" version="1.1" xmlns="http://www.w3.org/2000/svg" xmlns:xlink="http://www.w3.org/1999/xlink">
    <title>Logolong</title>
    <g id="Logolong" stroke="none" stroke-width="1" fill="none" fill-rule="evenodd">
        <g id="Because-Architecture" transform="translate(0.328000, 0.704000)" fill="#000000" fill-rule="nonzero">
            <path d="M0,11.296 L5.168,11.296 C6.96,11.296 8.32,9.936 8.32,8.176 C8.32,7.28 7.968,6.672 7.632,6.272 C7.44,6.032 7.216,5.84 6.96,5.696 L6.96,5.616 C7.168,5.456 7.376,5.264 7.552,5.04 C7.856,4.656 8.16,4.064 8.16,3.216 C8.16,1.472 6.8,0.096 4.96,0.096 L0,0.096 L0,11.296 Z M1.68,4.976 L1.68,1.616 L4.88,1.616 C5.76,1.616 6.48,2.336 6.48,3.296 C6.48,4.256 5.76,4.976 4.88,4.976 L1.68,4.976 Z M1.68,9.776 L1.68,6.416 L5.04,6.416 C5.92,6.416 6.64,7.136 6.64,8.096 C6.64,9.056 5.92,9.776 5.04,9.776 L1.68,9.776 Z" id="Shape"></path>
            <path d="M11.44,6.656 C11.68,5.376 12.48,4.496 13.84,4.496 C15.12,4.496 15.984,5.376 16.16,6.656 L11.44,6.656 Z M15.76,8.976 C15.504,9.536 14.8,10.096 13.84,10.096 C12.56,10.096 11.616,9.216 11.44,7.856 L17.6,7.856 L17.632,7.632 C17.648,7.488 17.68,7.296 17.68,7.056 C17.68,4.816 16,3.136 13.84,3.136 C11.52,3.136 9.84,4.816 9.84,7.296 C9.84,9.776 11.52,11.456 13.84,11.456 C15.92,11.456 17.056,10.016 17.44,8.976 L15.76,8.976 Z" id="Shape"></path>
            <path d="M25.04,8.496 C24.864,9.136 24.24,10.016 22.96,10.016 C21.6,10.016 20.56,8.96 20.56,7.296 C20.56,5.632 21.6,4.576 22.96,4.576 C24.176,4.576 24.784,5.296 25.04,6.016 L26.64,6.016 C26.384,4.912 25.36,3.136 22.96,3.136 C20.64,3.136 18.96,4.816 18.96,7.296 C18.96,9.776 20.64,11.456 22.96,11.456 C25.36,11.456 26.384,9.696 26.64,8.496 L25.04,8.496 Z" id="Path"></path>
            <path d="M33.44,11.296 L34.8,11.296 L34.8,6.176 C34.8,4.32 33.616,3.136 31.52,3.136 C29.52,3.136 28.32,4.272 28.24,5.616 L29.84,5.616 C29.92,5.136 30.4,4.496 31.52,4.496 C32.56,4.496 33.2,5.136 33.2,6.176 L33.2,6.336 L31.2,6.336 C28.96,6.336 27.92,7.376 27.92,8.976 C27.92,10.432 29.04,11.456 30.8,11.456 C31.632,11.456 32.24,11.2 32.624,10.944 C32.848,10.8 33.04,10.624 33.2,10.416 L33.28,10.416 L33.44,11.296 Z M33.2,7.936 C33.2,9.296 32.416,10.096 30.96,10.096 C30,10.096 29.52,9.616 29.52,8.896 C29.52,8.176 30.064,7.616 31.28,7.616 L33.2,7.616 L33.2,7.936 Z" id="Shape"></path>
            <path d="M36.8,8.096 C36.8,10.192 38.08,11.456 40,11.456 C40.752,11.456 41.344,11.216 41.728,10.976 C41.952,10.832 42.144,10.672 42.32,10.496 L42.4,10.496 L42.56,11.296 L44,11.296 L44,3.296 L42.4,3.296 L42.4,8.096 C42.4,9.136 41.52,10.016 40.32,10.016 C39.216,10.016 38.4,9.136 38.4,8.096 L38.4,3.296 L36.8,3.296 L36.8,8.096 Z" id="Path"></path>
            <path d="M45.52,8.896 C45.52,9.776 46.4,11.456 48.96,11.456 C51.2,11.456 52.24,10.336 52.24,9.056 C52.24,7.712 51.472,6.912 49.92,6.656 L48.48,6.416 C47.76,6.272 47.28,5.952 47.28,5.456 C47.28,4.96 47.744,4.496 48.88,4.496 C50.08,4.496 50.56,5.136 50.56,5.616 L52.16,5.616 C52.16,4.736 51.2,3.136 48.88,3.136 C46.72,3.136 45.68,4.176 45.68,5.456 C45.68,6.816 46.464,7.52 48,7.776 L49.44,8.016 C50.336,8.16 50.64,8.496 50.64,9.056 C50.64,9.552 50.16,10.096 48.96,10.096 C47.68,10.096 47.12,9.376 47.12,8.896 L45.52,8.896 Z" id="Path"></path>
            <path d="M55.04,6.656 C55.28,5.376 56.08,4.496 57.44,4.496 C58.72,4.496 59.584,5.376 59.76,6.656 L55.04,6.656 Z M59.36,8.976 C59.104,9.536 58.4,10.096 57.44,10.096 C56.16,10.096 55.216,9.216 55.04,7.856 L61.2,7.856 L61.232,7.632 C61.248,7.488 61.28,7.296 61.28,7.056 C61.28,4.816 59.6,3.136 57.44,3.136 C55.12,3.136 53.44,4.816 53.44,7.296 C53.44,9.776 55.12,11.456 57.44,11.456 C59.52,11.456 60.656,10.016 61.04,8.976 L59.36,8.976 Z" id="Shape"></path>
            <path d="M75.024,11.296 L75.104,10.88 L74.16,10.88 L72.304,0 L71.296,0 L66.592,8.816 C66.096,9.744 65.616,10.576 65.392,10.88 L64.544,10.88 L64.464,11.296 L67.648,11.296 L67.744,10.88 L66.496,10.88 C66.672,10.128 67.2,8.768 67.568,8.08 L68.064,7.168 L71.856,7.168 L72.48,10.88 L71.04,10.88 L70.976,11.296 L75.024,11.296 Z M71.792,6.704 L68.288,6.704 C69.2,4.944 70.528,2.48 70.88,1.792 L70.944,1.792 L71.792,6.704 Z" id="Shape"></path>
            <path d="M77.664,11.296 L78.48,7.12 C78.688,6.064 79.568,3.872 80.896,3.872 C81.344,3.872 81.424,4.304 81.424,4.656 C81.424,5.232 81.296,5.808 81.168,6.368 L82.16,6.368 C82.32,5.728 82.528,5.056 82.528,4.384 C82.528,3.728 82.16,3.248 81.44,3.248 C80.272,3.248 79.392,4.128 78.864,5.072 L78.848,5.072 L79.168,3.456 L76.624,3.456 L76.528,3.872 L77.68,3.872 L76.192,11.296 L77.664,11.296 Z" id="Path"></path>
            <path d="M89.12,8.832 C88.48,10.048 87.6,11.008 86.112,11.008 C84.752,11.008 84.48,9.888 84.48,8.816 C84.48,7.12 85.408,3.632 87.568,3.632 C88.368,3.632 88.624,4.32 88.624,4.976 C88.624,5.456 88.544,5.92 88.448,6.368 L89.456,6.368 C89.552,5.984 89.6,5.584 89.6,5.168 C89.6,3.872 88.848,3.248 87.536,3.248 C84.672,3.248 82.944,5.952 82.944,8.512 C82.944,10.336 83.84,11.504 85.776,11.504 C87.584,11.504 88.752,10.576 89.584,9.056 L89.12,8.832 Z" id="Path"></path>
            <path d="M98.288,10.88 C98.112,10.896 97.936,10.928 97.728,10.928 C97.344,10.928 97.04,10.8 97.04,10.384 C97.04,10.176 97.04,9.984 97.088,9.792 L97.84,6.032 C97.904,5.696 97.968,5.344 97.968,4.992 C97.968,3.824 97.344,3.248 96.144,3.248 C94.864,3.248 94,3.872 93.36,4.928 L93.328,4.928 L94.336,0.096 L91.744,0.096 L91.68,0.512 L92.8,0.512 L90.656,11.296 L92.128,11.296 L93.008,6.832 C93.12,6.208 93.344,5.488 93.728,4.928 C94.16,4.32 94.784,3.808 95.568,3.808 C96.288,3.808 96.528,4.304 96.528,4.928 C96.528,5.312 96.448,5.68 96.368,6.064 L95.712,9.344 C95.664,9.664 95.6,9.984 95.6,10.32 C95.6,11.104 96.096,11.424 96.848,11.424 C97.312,11.424 97.76,11.376 98.208,11.296 L98.288,10.88 Z" id="Path"></path>
            <path d="M103.376,1.056 C103.376,0.64 103.04,0.336 102.64,0.336 C102.064,0.336 101.632,0.784 101.632,1.328 C101.632,1.728 101.968,2.048 102.384,2.048 C102.96,2.048 103.376,1.6 103.376,1.056 Z M102.848,10.88 C102.656,10.896 102.464,10.928 102.272,10.928 C101.904,10.928 101.568,10.8 101.568,10.384 C101.568,10.176 101.584,9.984 101.632,9.792 L102.896,3.456 L100.288,3.456 L100.208,3.872 L101.36,3.872 L100.256,9.344 C100.192,9.664 100.128,9.984 100.128,10.32 C100.128,11.104 100.64,11.424 101.376,11.424 C101.84,11.424 102.304,11.376 102.752,11.296 L102.848,10.88 Z" id="Shape"></path>
            <path d="M108.816,9.52 C108.32,10.16 107.648,10.96 106.752,10.96 C106.304,10.96 106.128,10.624 106.128,10.208 C106.128,9.92 106.176,9.648 106.224,9.36 L107.296,3.984 L109.264,3.984 L109.36,3.456 L107.408,3.456 L107.856,1.184 L106.72,1.184 L106,3.456 L104.688,3.456 L104.576,3.984 L105.84,3.984 L104.8,9.168 C104.736,9.488 104.688,9.84 104.688,10.176 C104.688,11.152 105.424,11.504 106.32,11.504 C107.6,11.504 108.432,10.72 109.152,9.792 L108.816,9.52 Z" id="Path"></path>
            <path d="M115.84,8.832 C115.168,10.048 114.256,11.024 112.784,11.024 C111.296,11.024 111.04,9.888 111.04,8.768 C111.04,8.368 111.104,7.968 111.2,7.584 C112.928,7.536 116.288,7.488 116.288,5.104 C116.288,3.792 115.232,3.248 114.016,3.248 C111.2,3.248 109.52,6.016 109.52,8.512 C109.52,10.4 110.416,11.504 112.416,11.504 C114.224,11.504 115.456,10.56 116.304,9.056 L115.84,8.832 Z M111.296,7.152 C111.6,5.696 112.288,3.648 114,3.648 C114.768,3.648 115.168,4.144 115.168,4.864 C115.168,6.848 112.864,7.056 111.296,7.152 Z" id="Shape"></path>
            <path d="M123.216,8.832 C122.576,10.048 121.696,11.008 120.208,11.008 C118.848,11.008 118.576,9.888 118.576,8.816 C118.576,7.12 119.504,3.632 121.664,3.632 C122.464,3.632 122.72,4.32 122.72,4.976 C122.72,5.456 122.64,5.92 122.544,6.368 L123.552,6.368 C123.648,5.984 123.696,5.584 123.696,5.168 C123.696,3.872 122.944,3.248 121.632,3.248 C118.768,3.248 117.04,5.952 117.04,8.512 C117.04,10.336 117.936,11.504 119.872,11.504 C121.68,11.504 122.848,10.576 123.68,9.056 L123.216,8.832 Z" id="Path"></path>
            <path d="M129.2,9.52 C128.704,10.16 128.032,10.96 127.136,10.96 C126.688,10.96 126.512,10.624 126.512,10.208 C126.512,9.92 126.56,9.648 126.608,9.36 L127.68,3.984 L129.648,3.984 L129.744,3.456 L127.792,3.456 L128.24,1.184 L127.104,1.184 L126.384,3.456 L125.072,3.456 L124.96,3.984 L126.224,3.984 L125.184,9.168 C125.12,9.488 125.072,9.84 125.072,10.176 C125.072,11.152 125.808,11.504 126.704,11.504 C127.984,11.504 128.816,10.72 129.536,9.792 L129.2,9.52 Z" id="Path"></path>
            <path d="M137.856,10.88 C137.664,10.896 137.488,10.928 137.296,10.928 C136.912,10.928 136.592,10.8 136.592,10.384 C136.592,10.176 136.608,9.984 136.656,9.792 L137.904,3.456 L136.448,3.456 L135.6,7.776 C135.472,8.416 135.248,9.12 134.864,9.664 C134.432,10.272 133.744,10.912 132.96,10.912 C132.288,10.912 132.048,10.448 132.048,9.824 C132.048,9.44 132.112,9.072 132.192,8.688 L133.248,3.456 L130.64,3.456 L130.56,3.872 L131.696,3.872 L130.736,8.72 C130.672,9.056 130.624,9.408 130.624,9.76 C130.624,10.912 131.232,11.504 132.384,11.504 C133.696,11.504 134.64,10.768 135.264,9.68 C135.2,10.016 135.184,10.256 135.2,10.464 C135.264,11.136 135.712,11.424 136.4,11.424 C136.864,11.424 137.312,11.376 137.776,11.296 L137.856,10.88 Z" id="Path"></path>
            <path d="M140.928,11.296 L141.744,7.12 C141.952,6.064 142.832,3.872 144.16,3.872 C144.608,3.872 144.688,4.304 144.688,4.656 C144.688,5.232 144.56,5.808 144.432,6.368 L145.424,6.368 C145.584,5.728 145.792,5.056 145.792,4.384 C145.792,3.728 145.424,3.248 144.704,3.248 C143.536,3.248 142.656,4.128 142.128,5.072 L142.112,5.072 L142.432,3.456 L139.888,3.456 L139.792,3.872 L140.944,3.872 L139.456,11.296 L140.928,11.296 Z" id="Path"></path>
            <path d="M152.528,8.832 C151.856,10.048 150.944,11.024 149.472,11.024 C147.984,11.024 147.728,9.888 147.728,8.768 C147.728,8.368 147.792,7.968 147.888,7.584 C149.616,7.536 152.976,7.488 152.976,5.104 C152.976,3.792 151.92,3.248 150.704,3.248 C147.888,3.248 146.208,6.016 146.208,8.512 C146.208,10.4 147.104,11.504 149.104,11.504 C150.912,11.504 152.144,10.56 152.992,9.056 L152.528,8.832 Z M147.984,7.152 C148.288,5.696 148.976,3.648 150.688,3.648 C151.456,3.648 151.856,4.144 151.856,4.864 C151.856,6.848 149.552,7.056 147.984,7.152 Z" id="Shape"></path>
            <polygon id="Path" points="158.464 11.296 160.144 11.296 160.144 2.736 160.464 2.736 163.344 11.296 165.584 11.296 168.464 2.736 168.784 2.736 168.784 11.296 170.464 11.296 170.464 0.096 167.584 0.096 164.624 8.896 164.304 8.896 161.344 0.096 158.464 0.096"></polygon>
            <path d="M177.904,11.296 L179.264,11.296 L179.264,6.176 C179.264,4.32 178.08,3.136 175.984,3.136 C173.984,3.136 172.784,4.272 172.704,5.616 L174.304,5.616 C174.384,5.136 174.864,4.496 175.984,4.496 C177.024,4.496 177.664,5.136 177.664,6.176 L177.664,6.336 L175.664,6.336 C173.424,6.336 172.384,7.376 172.384,8.976 C172.384,10.432 173.504,11.456 175.264,11.456 C176.096,11.456 176.704,11.2 177.088,10.944 C177.312,10.8 177.504,10.624 177.664,10.416 L177.744,10.416 L177.904,11.296 Z M177.664,7.936 C177.664,9.296 176.88,10.096 175.424,10.096 C174.464,10.096 173.984,9.616 173.984,8.896 C173.984,8.176 174.528,7.616 175.744,7.616 L177.664,7.616 L177.664,7.936 Z" id="Shape"></path>
            <path d="M181.904,9.616 C181.904,10.656 182.528,11.296 183.664,11.296 L185.344,11.296 L185.344,9.856 L183.984,9.856 C183.664,9.856 183.504,9.696 183.504,9.376 L183.504,4.816 L185.344,4.816 L185.344,3.296 L183.504,3.296 L183.504,1.056 L181.904,1.056 L181.904,3.296 L180.624,3.296 L180.624,4.816 L181.904,4.816 L181.904,9.616 Z" id="Path"></path>
            <path d="M187.744,9.616 C187.744,10.656 188.368,11.296 189.504,11.296 L191.184,11.296 L191.184,9.856 L189.824,9.856 C189.504,9.856 189.344,9.696 189.344,9.376 L189.344,4.816 L191.184,4.816 L191.184,3.296 L189.344,3.296 L189.344,1.056 L187.744,1.056 L187.744,3.296 L186.464,3.296 L186.464,4.816 L187.744,4.816 L187.744,9.616 Z" id="Path"></path>
            <path d="M194.144,6.656 C194.384,5.376 195.184,4.496 196.544,4.496 C197.824,4.496 198.688,5.376 198.864,6.656 L194.144,6.656 Z M198.464,8.976 C198.208,9.536 197.504,10.096 196.544,10.096 C195.264,10.096 194.32,9.216 194.144,7.856 L200.304,7.856 L200.336,7.632 C200.352,7.488 200.384,7.296 200.384,7.056 C200.384,4.816 198.704,3.136 196.544,3.136 C194.224,3.136 192.544,4.816 192.544,7.296 C192.544,9.776 194.224,11.456 196.544,11.456 C198.624,11.456 199.76,10.016 200.144,8.976 L198.464,8.976 Z" id="Shape"></path>
            <path d="M202.064,11.296 L203.664,11.296 L203.664,6.4 C203.664,5.296 204.224,4.736 205.344,4.736 L206.624,4.736 L206.624,3.296 L205.184,3.296 C204.192,3.296 203.936,3.712 203.664,4.016 L203.584,4.016 L203.424,3.296 L202.064,3.296 L202.064,11.296 Z" id="Path"></path>
            <path d="M207.264,8.896 C207.264,9.776 208.144,11.456 210.704,11.456 C212.944,11.456 213.984,10.336 213.984,9.056 C213.984,7.712 213.216,6.912 211.664,6.656 L210.224,6.416 C209.504,6.272 209.024,5.952 209.024,5.456 C209.024,4.96 209.488,4.496 210.624,4.496 C211.824,4.496 212.304,5.136 212.304,5.616 L213.904,5.616 C213.904,4.736 212.944,3.136 210.624,3.136 C208.464,3.136 207.424,4.176 207.424,5.456 C207.424,6.816 208.208,7.52 209.744,7.776 L211.184,8.016 C212.08,8.16 212.384,8.496 212.384,9.056 C212.384,9.552 211.904,10.096 210.704,10.096 C209.424,10.096 208.864,9.376 208.864,8.896 L207.264,8.896 Z" id="Path"></path>
        </g>
        <circle id="Oval" fill="#000000" cx="223.5" cy="8" r="4"></circle>
    </g>
</svg>